<svg width="219" height="50" viewBox="0 0 219 50" fill="none" xmlns="http://www.w3.org/2000/svg">
<path d="M67.3097 18.04L64.3337 18.952C64.2217 18.344 63.9177 17.792 63.4217 17.296C62.9257 16.8 62.1977 16.552 61.2377 16.552C60.4537 16.552 59.8137 16.768 59.3177 17.2C58.8217 17.616 58.5737 18.12 58.5737 18.712C58.5737 19.752 59.1897 20.392 60.4217 20.632L62.7977 21.088C64.3017 21.376 65.4697 21.976 66.3017 22.888C67.1337 23.8 67.5497 24.872 67.5497 26.104C67.5497 27.512 66.9897 28.744 65.8697 29.8C64.7657 30.84 63.2777 31.36 61.4057 31.36C60.3337 31.36 59.3657 31.2 58.5017 30.88C57.6377 30.56 56.9417 30.136 56.4137 29.608C55.8857 29.064 55.4697 28.496 55.1657 27.904C54.8777 27.296 54.7017 26.672 54.6377 26.032L57.7097 25.216C57.7897 26.128 58.1417 26.888 58.7657 27.496C59.4057 28.104 60.2937 28.408 61.4297 28.408C62.2937 28.408 62.9657 28.216 63.4457 27.832C63.9417 27.448 64.1897 26.944 64.1897 26.32C64.1897 25.824 64.0057 25.4 63.6377 25.048C63.2857 24.68 62.7817 24.432 62.1257 24.304L59.7497 23.824C58.3737 23.536 57.2857 22.968 56.4857 22.12C55.6857 21.272 55.2857 20.216 55.2857 18.952C55.2857 17.448 55.8617 16.184 57.0137 15.16C58.1817 14.136 59.5817 13.624 61.2137 13.624C62.1897 13.624 63.0617 13.76 63.8297 14.032C64.5977 14.304 65.2137 14.672 65.6777 15.136C66.1417 15.584 66.5017 16.048 66.7577 16.528C67.0137 17.008 67.1977 17.512 67.3097 18.04Z" fill="#101426"/>
<path d="M72.9464 31H69.7544V19.192H72.8024V20.632C73.1064 20.088 73.5864 19.656 74.2424 19.336C74.8984 19.016 75.5704 18.856 76.2584 18.856C77.9704 18.856 79.1384 19.512 79.7624 20.824C80.6104 19.512 81.8584 18.856 83.5064 18.856C84.7064 18.856 85.7144 19.232 86.5304 19.984C87.3624 20.736 87.7784 21.856 87.7784 23.344V31H84.6824V23.992C84.6824 23.32 84.5064 22.784 84.1544 22.384C83.8184 21.968 83.2984 21.76 82.5944 21.76C81.9384 21.76 81.4104 21.984 81.0104 22.432C80.6104 22.88 80.4104 23.432 80.4104 24.088V31H77.2424V23.992C77.2424 23.32 77.0664 22.784 76.7144 22.384C76.3624 21.968 75.8424 21.76 75.1544 21.76C74.4824 21.76 73.9464 21.984 73.5464 22.432C73.1464 22.864 72.9464 23.416 72.9464 24.088V31Z" fill="#101426"/>
<path d="M90.2922 27.784C90.2922 26.776 90.6202 25.968 91.2762 25.36C91.9322 24.752 92.7802 24.368 93.8202 24.208L96.7242 23.776C97.3162 23.696 97.6122 23.416 97.6122 22.936C97.6122 22.488 97.4362 22.12 97.0842 21.832C96.7482 21.544 96.2602 21.4 95.6202 21.4C94.9482 21.4 94.4122 21.584 94.0122 21.952C93.6282 22.32 93.4122 22.776 93.3642 23.32L90.5322 22.72C90.6442 21.696 91.1482 20.792 92.0442 20.008C92.9402 19.224 94.1242 18.832 95.5962 18.832C97.3562 18.832 98.6522 19.256 99.4842 20.104C100.316 20.936 100.732 22.008 100.732 23.32V29.128C100.732 29.832 100.78 30.456 100.876 31H97.9482C97.8682 30.648 97.8282 30.176 97.8282 29.584C97.0762 30.752 95.9162 31.336 94.3482 31.336C93.1322 31.336 92.1482 30.984 91.3962 30.28C90.6602 29.576 90.2922 28.744 90.2922 27.784ZM95.0202 28.96C95.7722 28.96 96.3882 28.752 96.8682 28.336C97.3642 27.904 97.6122 27.2 97.6122 26.224V25.696L94.9482 26.104C93.9722 26.248 93.4842 26.744 93.4842 27.592C93.4842 27.976 93.6202 28.304 93.8922 28.576C94.1642 28.832 94.5402 28.96 95.0202 28.96Z" fill="#101426"/>
<path d="M111.15 19.144V22.36C110.83 22.296 110.51 22.264 110.19 22.264C109.278 22.264 108.542 22.528 107.982 23.056C107.422 23.568 107.142 24.416 107.142 25.6V31H103.95V19.192H107.046V20.944C107.622 19.712 108.742 19.096 110.406 19.096C110.582 19.096 110.83 19.112 111.15 19.144Z" fill="#101426"/>
<path d="M117.8 15.664V19.192H120.176V22.024H117.8V26.968C117.8 27.464 117.912 27.816 118.136 28.024C118.36 28.232 118.712 28.336 119.192 28.336C119.624 28.336 119.952 28.304 120.176 28.24V30.88C119.712 31.072 119.112 31.168 118.376 31.168C117.224 31.168 116.312 30.848 115.64 30.208C114.968 29.552 114.632 28.656 114.632 27.52V22.024H112.496V19.192H113.096C113.688 19.192 114.136 19.024 114.44 18.688C114.76 18.336 114.92 17.88 114.92 17.32V15.664H117.8Z" fill="#101426"/>
<path d="M136.691 31.36C134.243 31.36 132.179 30.544 130.499 28.912C128.819 27.28 127.979 25.144 127.979 22.504C127.979 19.88 128.827 17.744 130.523 16.096C132.235 14.448 134.275 13.624 136.643 13.624C138.819 13.624 140.563 14.176 141.875 15.28C143.203 16.384 144.059 17.712 144.443 19.264L141.323 20.248C141.083 19.288 140.579 18.48 139.811 17.824C139.043 17.152 137.987 16.816 136.643 16.816C135.251 16.816 134.027 17.312 132.971 18.304C131.931 19.296 131.411 20.696 131.411 22.504C131.411 24.232 131.923 25.6 132.947 26.608C133.987 27.616 135.235 28.12 136.691 28.12C138.019 28.12 139.075 27.776 139.859 27.088C140.659 26.4 141.195 25.584 141.467 24.64L144.563 25.576C144.387 26.264 144.099 26.936 143.699 27.592C143.315 28.248 142.811 28.864 142.187 29.44C141.563 30.016 140.771 30.48 139.811 30.832C138.867 31.184 137.827 31.36 136.691 31.36Z" fill="#101426"/>
<path d="M146.027 27.784C146.027 26.776 146.355 25.968 147.011 25.36C147.667 24.752 148.515 24.368 149.555 24.208L152.459 23.776C153.051 23.696 153.347 23.416 153.347 22.936C153.347 22.488 153.171 22.12 152.819 21.832C152.483 21.544 151.995 21.4 151.355 21.4C150.683 21.4 150.147 21.584 149.747 21.952C149.363 22.32 149.147 22.776 149.099 23.32L146.267 22.72C146.379 21.696 146.883 20.792 147.779 20.008C148.675 19.224 149.859 18.832 151.331 18.832C153.091 18.832 154.387 19.256 155.219 20.104C156.051 20.936 156.467 22.008 156.467 23.32V29.128C156.467 29.832 156.515 30.456 156.611 31H153.683C153.603 30.648 153.563 30.176 153.563 29.584C152.811 30.752 151.651 31.336 150.083 31.336C148.867 31.336 147.883 30.984 147.131 30.28C146.395 29.576 146.027 28.744 146.027 27.784ZM150.755 28.96C151.507 28.96 152.123 28.752 152.603 28.336C153.099 27.904 153.347 27.2 153.347 26.224V25.696L150.683 26.104C149.707 26.248 149.219 26.744 149.219 27.592C149.219 27.976 149.355 28.304 149.627 28.576C149.899 28.832 150.275 28.96 150.755 28.96Z" fill="#101426"/>
<path d="M162.876 31H159.684V19.192H162.732V20.632C163.036 20.088 163.516 19.656 164.172 19.336C164.828 19.016 165.5 18.856 166.188 18.856C167.9 18.856 169.068 19.512 169.692 20.824C170.54 19.512 171.788 18.856 173.436 18.856C174.636 18.856 175.644 19.232 176.46 19.984C177.292 20.736 177.708 21.856 177.708 23.344V31H174.612V23.992C174.612 23.32 174.436 22.784 174.084 22.384C173.748 21.968 173.228 21.76 172.524 21.76C171.868 21.76 171.34 21.984 170.94 22.432C170.54 22.88 170.34 23.432 170.34 24.088V31H167.172V23.992C167.172 23.32 166.996 22.784 166.644 22.384C166.292 21.968 165.772 21.76 165.084 21.76C164.412 21.76 163.876 21.984 163.476 22.432C163.076 22.864 162.876 23.416 162.876 24.088V31Z" fill="#101426"/>
<path d="M184.134 35.56H180.942V19.192H184.038V20.632C184.326 20.152 184.79 19.752 185.43 19.432C186.07 19.096 186.814 18.928 187.662 18.928C189.342 18.928 190.67 19.504 191.646 20.656C192.622 21.792 193.11 23.264 193.11 25.072C193.11 26.88 192.59 28.368 191.55 29.536C190.526 30.704 189.19 31.288 187.542 31.288C185.974 31.288 184.838 30.808 184.134 29.848V35.56ZM189.126 27.544C189.686 26.936 189.966 26.12 189.966 25.096C189.966 24.072 189.686 23.264 189.126 22.672C188.582 22.08 187.886 21.784 187.038 21.784C186.19 21.784 185.486 22.088 184.926 22.696C184.366 23.288 184.086 24.088 184.086 25.096C184.086 26.104 184.366 26.912 184.926 27.52C185.486 28.128 186.19 28.432 187.038 28.432C187.886 28.432 188.582 28.136 189.126 27.544Z" fill="#101426"/>
<path d="M203.318 31C203.254 30.68 203.222 30.256 203.222 29.728C202.918 30.256 202.462 30.656 201.854 30.928C201.262 31.184 200.63 31.312 199.958 31.312C198.566 31.312 197.47 30.872 196.67 29.992C195.87 29.096 195.47 27.984 195.47 26.656V19.192H198.662V26.008C198.662 26.712 198.846 27.288 199.214 27.736C199.582 28.168 200.118 28.384 200.822 28.384C201.51 28.384 202.054 28.176 202.454 27.76C202.854 27.328 203.054 26.76 203.054 26.056V19.192H206.246V28.864C206.246 29.616 206.286 30.328 206.366 31H203.318Z" fill="#101426"/>
<path d="M208.645 27.712L211.381 27.112C211.413 27.624 211.613 28.056 211.981 28.408C212.365 28.744 212.885 28.912 213.541 28.912C214.037 28.912 214.421 28.8 214.693 28.576C214.965 28.352 215.101 28.072 215.101 27.736C215.101 27.144 214.677 26.76 213.829 26.584L212.269 26.224C211.165 25.984 210.333 25.552 209.773 24.928C209.229 24.304 208.957 23.56 208.957 22.696C208.957 21.624 209.373 20.712 210.205 19.96C211.053 19.208 212.109 18.832 213.373 18.832C214.173 18.832 214.877 18.952 215.485 19.192C216.093 19.416 216.565 19.712 216.901 20.08C217.237 20.432 217.493 20.792 217.669 21.16C217.845 21.528 217.957 21.888 218.005 22.24L215.341 22.84C215.277 22.424 215.085 22.056 214.765 21.736C214.461 21.416 214.005 21.256 213.397 21.256C212.981 21.256 212.621 21.368 212.317 21.592C212.029 21.816 211.885 22.096 211.885 22.432C211.885 23.008 212.245 23.36 212.965 23.488L214.645 23.848C215.781 24.088 216.645 24.528 217.237 25.168C217.845 25.808 218.149 26.576 218.149 27.472C218.149 28.528 217.749 29.44 216.949 30.208C216.149 30.976 215.021 31.36 213.565 31.36C212.733 31.36 211.989 31.24 211.333 31C210.677 30.744 210.165 30.424 209.797 30.04C209.445 29.64 209.173 29.248 208.981 28.864C208.805 28.464 208.693 28.08 208.645 27.712Z" fill="#101426"/>
<g filter="url(#filter0_d)">
<path d="M37.1893 6.08221H12C9.79086 6.08221 8 7.87307 8 10.0822V35.2715C8 37.4807 9.79086 39.2715 12 39.2715H37.1893C39.3984 39.2715 41.1893 37.4807 41.1893 35.2715V10.0822C41.1893 7.87307 39.3984 6.08221 37.1893 6.08221Z" fill="#2369FF"/>
</g>
<path d="M22.1958 17.9137L19.5555 18.7228C19.4561 18.1834 19.1864 17.6937 18.7464 17.2536C18.3063 16.8136 17.6604 16.5935 16.8087 16.5935C16.1131 16.5935 15.5453 16.7852 15.1053 17.1684C14.6652 17.5375 14.4452 17.9847 14.4452 18.5099C14.4452 19.4326 14.9917 20.0004 16.0847 20.2133L18.1927 20.6179C19.5271 20.8734 20.5634 21.4057 21.3015 22.2149C22.0397 23.024 22.4087 23.9751 22.4087 25.0681C22.4087 26.3173 21.9119 27.4104 20.9182 28.3472C19.9388 29.2699 18.6186 29.7313 16.9577 29.7313C16.0067 29.7313 15.1478 29.5893 14.3813 29.3054C13.6147 29.0215 12.9973 28.6454 12.5288 28.1769C12.0604 27.6943 11.6913 27.1903 11.4216 26.6651C11.1661 26.1257 11.0099 25.5721 10.9531 25.0043L13.6786 24.2803C13.7496 25.0894 14.0619 25.7637 14.6155 26.3031C15.1833 26.8425 15.9712 27.1123 16.979 27.1123C17.7456 27.1123 18.3418 26.9419 18.7676 26.6012C19.2077 26.2605 19.4277 25.8134 19.4277 25.2598C19.4277 24.8197 19.2645 24.4435 18.938 24.1312C18.6257 23.8047 18.1785 23.5847 17.5965 23.4712L15.4885 23.0453C14.2677 22.7898 13.3024 22.2859 12.5927 21.5335C11.8829 20.7811 11.528 19.8443 11.528 18.7228C11.528 17.3885 12.0391 16.267 13.0611 15.3585C14.0974 14.45 15.3395 13.9958 16.7874 13.9958C17.6533 13.9958 18.427 14.1164 19.1083 14.3578C19.7897 14.5991 20.3362 14.9256 20.7479 15.3372C21.1596 15.7347 21.479 16.1464 21.7061 16.5722C21.9332 16.9981 22.0964 17.4453 22.1958 17.9137Z" fill="white"/>
<path d="M31.6833 29.7313C29.5114 29.7313 27.6802 29.0073 26.1897 27.5594C24.6992 26.1115 23.9539 24.2164 23.9539 21.8742C23.9539 19.5462 24.7063 17.6511 26.211 16.189C27.7299 14.7268 29.5398 13.9958 31.6407 13.9958C33.5712 13.9958 35.1185 14.4855 36.2825 15.465C37.4608 16.4445 38.2202 17.6227 38.5609 18.9996L35.7928 19.8726C35.5799 19.0209 35.1327 18.3041 34.4514 17.7221C33.77 17.1259 32.8331 16.8278 31.6407 16.8278C30.4057 16.8278 29.3197 17.2678 28.3829 18.1479C27.4602 19.028 26.9988 20.2701 26.9988 21.8742C26.9988 23.4073 27.4531 24.621 28.3616 25.5153C29.2843 26.4096 30.3915 26.8567 31.6833 26.8567C32.8615 26.8567 33.7984 26.5515 34.4939 25.9411C35.2037 25.3307 35.6792 24.6068 35.9206 23.7693L38.6674 24.5997C38.5112 25.2101 38.2557 25.8063 37.9008 26.3883C37.5601 26.9703 37.113 27.5168 36.5594 28.0279C36.0057 28.5389 35.3031 28.9506 34.4514 29.2628C33.6138 29.5751 32.6911 29.7313 31.6833 29.7313Z" fill="white"/>
<defs>
<filter id="filter0_d" x="0" y="0.0822144" width="49.1893" height="49.1893" filterUnits="userSpaceOnUse" color-interpolation-filters="sRGB">
<feFlood flood-opacity="0" result="BackgroundImageFix"/>
<feColorMatrix in="SourceAlpha" type="matrix" values="0 0 0 0 0 0 0 0 0 0 0 0 0 0 0 0 0 0 127 0"/>
<feOffset dy="2"/>
<feGaussianBlur stdDeviation="4"/>
<feColorMatrix type="matrix" values="0 0 0 0 0 0 0 0 0 0 0 0 0 0 0 0 0 0 0.25 0"/>
<feBlend mode="normal" in2="BackgroundImageFix" result="effect1_dropShadow"/>
<feBlend mode="normal" in="SourceGraphic" in2="effect1_dropShadow" result="shape"/>
</filter>
</defs>
</svg>
